<?xml version="1.0" encoding="utf-8"?>
<!-- Generator: Adobe Illustrator 20.0.0, SVG Export Plug-In . SVG Version: 6.00 Build 0)  -->
<svg version="1.1" id="Layer_1" xmlns="http://www.w3.org/2000/svg" xmlns:xlink="http://www.w3.org/1999/xlink" x="0px" y="0px"
	 viewBox="0 0 45.1 42.1" style="enable-background:new 0 0 45.1 42.1;" xml:space="preserve">
<style type="text/css">
	.st0{fill:#A67C52;}
	.st1{fill:#BF8E5E;}
	.st2{fill:#CCA75C;}
	.st3{fill:#FFD073;}
</style>
<title>icon</title>
<g id="Handle_1_">
	<g>
		<path class="st0" d="M28.1,1.3H16.9c-1.6,0-2.9,1.3-2.9,2.9v1.4h2.9c0-0.8,0.7-1.4,1.4-1.4h8.5c0.8,0,1.4,0.7,1.4,1.4h2.6V4.2
			C30.9,2.6,29.7,1.3,28.1,1.3z"/>
	</g>
</g>
<g id="Body_1_">
	<g>
		<path class="st0" d="M42.1,6.9H2.9C1.3,6.9,0,8.2,0,9.8v28.1c0,1.6,1.3,2.9,2.9,2.9h39.3c1.6,0,2.9-1.3,2.9-2.9V9.8
			C44.9,8.2,43.6,6.9,42.1,6.9z"/>
	</g>
</g>
<g id="Flap">
	<g>
		<path class="st1" d="M42.1,5.5H2.9C1.3,5.5,0,6.8,0,8.3L1.4,21c0,1.6,1.3,2.9,2.9,2.9l14.1,2.9h8.5l14.1-2.9
			c1.6,0,2.9-1.3,2.9-2.9l1.4-12.6C44.9,6.8,43.6,5.5,42.1,5.5z"/>
	</g>
</g>
<g id="Lock_2_">
	<g>
		<path class="st2" d="M18.2,26.6V28c0,0.8,0.7,1.4,1.4,1.4h5.6c0.8,0,1.4-0.7,1.4-1.4v-1.4H18.2z"/>
	</g>
</g>
<g id="Lock_3_">
	<g>
		<path class="st3" d="M25.3,21h-5.6c-0.8,0-1.4,0.7-1.4,1.4v4.2h8.5v-4.2C26.7,21.6,26.1,21,25.3,21z"/>
	</g>
</g>
</svg>
