<svg id="Layer_1" xmlns="http://www.w3.org/2000/svg" viewBox="0 0 137 137"><style>.st0{fill:#f7941d}.st1{fill:#fff}</style><path class="st0" d="M137 127c0 5.5-4.5 10-10 10H10c-5.5 0-10-4.5-10-10V10C0 4.5 4.5 0 10 0h117c5.5 0 10 4.5 10 10v117z"/><path class="st1" d="M50.1 35h-7.8v-1.7c0-1.8-.4-3.3-1.3-4.6s-2.2-1.9-4.2-1.9c-1.1 0-1.9.2-2.6.6-.7.4-1.2.9-1.6 1.6-.4.6-.6 1.4-.8 2.2-.2.8-.2 1.7-.2 2.6 0 1.1 0 2 .1 2.7.1.7.3 1.4.6 1.9s.7 1 1.3 1.4c.6.4 1.4.8 2.4 1.2l5.9 2.4c1.7.7 3.1 1.4 4.2 2.3 1.1.9 1.9 1.9 2.5 3.1.6 1.2 1 2.6 1.2 4.1.2 1.5.3 3.3.3 5.3 0 2.3-.2 4.4-.7 6.3-.5 2-1.2 3.6-2.2 5-1 1.4-2.4 2.5-4.1 3.3-1.7.8-3.8 1.2-6.3 1.2-1.9 0-3.6-.3-5.2-1s-3-1.6-4.2-2.7c-1.2-1.1-2.1-2.5-2.8-4.1-.7-1.6-1-3.3-1-5.1v-2.9h7.8v2.4c0 1.4.4 2.7 1.3 3.8.8 1.1 2.2 1.7 4.2 1.7 1.3 0 2.3-.2 3.1-.6.7-.4 1.3-.9 1.7-1.6s.6-1.5.7-2.5c.1-1 .2-2.1.2-3.3 0-1.4-.1-2.6-.2-3.5-.1-.9-.3-1.6-.6-2.2-.3-.6-.8-1-1.4-1.4-.6-.4-1.4-.7-2.3-1.1l-5.5-2.3c-3.3-1.4-5.6-3.2-6.7-5.4-1.1-2.3-1.7-5.1-1.7-8.5 0-2 .3-4 .8-5.8.6-1.8 1.4-3.4 2.5-4.7 1.1-1.3 2.5-2.4 4.1-3.2 1.4-.6 3.4-1 5.6-1 1.9 0 3.7.4 5.3 1.1 1.6.7 3 1.6 4.1 2.8 1.1 1.2 2 2.5 2.6 3.9.6 1.4.9 2.9.9 4.4V35zM71.1 73.5h-6.8l-11-54.1h8.2l6.2 37.8h.2L74 19.4h8.2L71.1 73.5zM86.4 32.2c0-2.2.4-4.1 1.1-5.8.8-1.7 1.8-3.1 3-4.1 1.2-1.1 2.6-1.9 4.2-2.5 1.5-.6 3.1-.8 4.7-.8s3.1.3 4.7.8c1.5.6 2.9 1.4 4.2 2.5 1.2 1.1 2.2 2.5 3 4.1s1.1 3.6 1.1 5.8v2.7h-7.8v-2.7c0-1.9-.5-3.3-1.6-4.1-1-.9-2.3-1.3-3.7-1.3-1.4 0-2.6.4-3.7 1.3-1 .9-1.6 2.3-1.6 4.1v28.6c0 1.9.5 3.3 1.6 4.1 1 .9 2.3 1.3 3.7 1.3 1.4 0 2.6-.4 3.7-1.3 1-.9 1.6-2.3 1.6-4.1V50.6h-6.2v-6.8h13.9v17c0 2.2-.4 4.2-1.1 5.8-.8 1.6-1.8 3-3 4.1-1.2 1.1-2.6 1.9-4.2 2.5-1.5.6-3.1.8-4.7.8s-3.1-.3-4.7-.8c-1.5-.6-2.9-1.4-4.2-2.5-1.2-1.1-2.2-2.5-3-4.1-.8-1.6-1.1-3.6-1.1-5.8V32.2z"/><g><path class="st1" d="M25.7 82.4h4.9v34.2h-4.9V82.4zM50.9 108.9c0 1.1-.2 2.1-.6 3-.4 1-1 1.8-1.7 2.5s-1.5 1.3-2.5 1.7c-.9.4-2 .6-3 .6-.9 0-1.9-.1-2.8-.4s-1.8-.7-2.6-1.3c-.8-.6-1.4-1.4-1.9-2.5s-.7-2.3-.7-3.9V89.9c0-1.1.2-2.2.6-3.1.4-1 .9-1.8 1.6-2.5.7-.7 1.5-1.3 2.5-1.7 1-.4 2.1-.6 3.2-.6s2.2.2 3.1.6c1 .4 1.8 1 2.5 1.7s1.3 1.6 1.7 2.6c.4 1 .6 2.1.6 3.3v1.9H46v-1.6c0-1-.3-1.8-.8-2.5s-1.3-1.1-2.2-1.1c-1.2 0-2 .4-2.4 1.1-.4.8-.6 1.7-.6 2.9v17.5c0 1 .2 1.8.6 2.5s1.2 1 2.3 1c.3 0 .7-.1 1-.2.4-.1.7-.3 1-.6.3-.3.6-.6.7-1.1s.3-1 .3-1.7v-1.7h4.9v2.3zM54.6 90.4c0-1.4.2-2.6.7-3.6.5-1.1 1.1-1.9 1.9-2.6.8-.7 1.7-1.2 2.6-1.6 1-.4 2-.5 3-.5s2 .2 3 .5c1 .4 1.9.9 2.6 1.6.8.7 1.4 1.6 1.9 2.6.5 1.1.7 2.3.7 3.6v18c0 1.4-.2 2.6-.7 3.7-.5 1-1.1 1.9-1.9 2.6-.8.7-1.7 1.2-2.6 1.6-1 .4-2 .5-3 .5s-2-.2-3-.5c-1-.4-1.9-.9-2.6-1.6-.8-.7-1.4-1.6-1.9-2.6s-.7-2.3-.7-3.7v-18zm4.9 18.1c0 1.2.3 2.1 1 2.6.7.6 1.4.8 2.3.8s1.7-.3 2.3-.8c.7-.6 1-1.4 1-2.6v-18c0-1.2-.3-2.1-1-2.6-.7-.6-1.4-.8-2.3-.8s-1.7.3-2.3.8c-.7.6-1 1.4-1 2.6v18zM75.1 82.4h4.7l7.4 20.6h.1V82.4h4.9v34.2h-4.6L80.1 96H80v20.5h-4.9V82.4zM112.4 92.2h-4.9v-1.1c0-1.1-.3-2.1-.8-2.9-.5-.8-1.4-1.2-2.7-1.2-.7 0-1.2.1-1.7.4-.4.3-.8.6-1 1-.2.4-.4.9-.5 1.4-.1.5-.1 1.1-.1 1.7 0 .7 0 1.2.1 1.7 0 .5.2.9.4 1.2.2.3.5.6.8.9.4.3.9.5 1.5.8l3.7 1.5c1.1.4 2 .9 2.6 1.5.7.6 1.2 1.2 1.6 2 .4.8.6 1.6.7 2.6.1 1 .2 2.1.2 3.3 0 1.4-.1 2.8-.4 4-.3 1.2-.8 2.3-1.4 3.2-.7.9-1.5 1.6-2.6 2.1s-2.4.8-4 .8c-1.2 0-2.3-.2-3.3-.6-1-.4-1.9-1-2.6-1.7-.7-.7-1.3-1.6-1.8-2.6-.4-1-.6-2.1-.6-3.2v-1.8h4.9v1.5c0 .9.3 1.7.8 2.4s1.4 1.1 2.7 1.1c.8 0 1.5-.1 1.9-.4s.8-.6 1.1-1c.2-.4.4-1 .5-1.6.1-.6.1-1.3.1-2.1 0-.9 0-1.6-.1-2.2-.1-.6-.2-1-.4-1.4-.2-.4-.5-.6-.9-.9-.4-.2-.9-.5-1.5-.7l-3.5-1.4c-2.1-.9-3.5-2-4.2-3.4s-1.1-3.2-1.1-5.4c0-1.3.2-2.5.5-3.6.4-1.2.9-2.1 1.6-3 .7-.8 1.6-1.5 2.6-2s2.3-.7 3.7-.7c1.2 0 2.3.2 3.3.7 1 .4 1.9 1 2.6 1.8s1.3 1.6 1.7 2.5c.4.9.6 1.8.6 2.8v2z"/></g></svg>