<?xml version="1.0" encoding="UTF-8" standalone="no"?>
<svg width="20px" height="20px" viewBox="0 0 20 20" version="1.1" xmlns="http://www.w3.org/2000/svg" xmlns:xlink="http://www.w3.org/1999/xlink" xmlns:sketch="http://www.bohemiancoding.com/sketch/ns">
    <title>latest-widget-icon</title>
    <defs>
        <path id="path-1" d="M0,0 L20,0 L20,20 L0,20"></path>
    </defs>
    <g id="Page-1" stroke="none" stroke-width="1" fill="none" fill-rule="evenodd" sketch:type="MSPage">
        <g id="latest-widget-icon" sketch:type="MSLayerGroup">
            <g id="Group-3">
                <mask id="mask-2" sketch:name="Clip 2" fill="white">
                    <use xlink:href="#path-1"></use>
                </mask>
                <g id="Clip-2"></g>
                <path d="M15.0241385,9.97844615 C15.0241385,12.7545231 12.7736769,15.0179077 9.9976,15.0179077 C7.22152308,15.0179077 4.97106154,12.7588308 4.97106154,9.98275385 C4.97106154,9.34383077 5.09152308,8.76921538 5.30898462,8.15383077 L-1.53846154e-05,8.15383077 L-1.53846154e-05,17.3621385 C-1.53846154e-05,18.8189846 1.18098462,19.9999846 2.63783077,19.9999846 L17.3621385,19.9999846 C18.8189846,19.9999846 19.9999846,18.8189846 19.9999846,17.3621385 L19.9999846,8.15383077 L14.6862154,8.15383077 C14.9036769,8.76921538 15.0241385,9.33952308 15.0241385,9.97844615" id="Fill-1" fill="#000000" sketch:type="MSShapeGroup" mask="url(#mask-2)"></path>
            </g>
            <path d="M9.99761538,4.96816923 C11.4343846,4.96816923 12.7293077,5.6154 13.6453846,6.53847692 L20,6.53847692 L20,2.63786154 C20,1.18101538 18.819,1.53846154e-05 17.3621538,1.53846154e-05 L2.63784615,1.53846154e-05 C1.181,1.53846154e-05 0,1.18101538 0,2.63786154 L0,6.53847692 L6.34984615,6.53847692 C7.26592308,5.6154 8.56084615,4.96816923 9.99761538,4.96816923" id="Fill-4" fill="#000000" sketch:type="MSShapeGroup"></path>
        </g>
    </g>
</svg>